<svg xmlns="http://www.w3.org/2000/svg" xmlns:xlink="http://www.w3.org/1999/xlink" version="1.1" x="0px" y="0px" viewBox="0 0 64 80" enable-background="new 0 0 64 64" xml:space="preserve"><g><path d="M55,4H9C6.243,4,4,6.243,4,9v36c0,2.757,2.243,5,5,5h18v4h-3c-1.654,0-3,1.346-3,3s1.346,3,3,3h16c1.654,0,3-1.346,3-3   s-1.346-3-3-3h-3v-4h18c2.757,0,5-2.243,5-5V9C60,6.243,57.757,4,55,4z M41,57c0,0.551-0.449,1-1,1H24c-0.551,0-1-0.449-1-1   s0.449-1,1-1h4h8h4C40.551,56,41,56.449,41,57z M35,54h-6v-4h6V54z M58,45c0,1.654-1.346,3-3,3H36h-8H9c-1.654,0-3-1.346-3-3V9   c0-1.654,1.346-3,3-3h46c1.654,0,3,1.346,3,3V45z M19,29c5.514,0,10-4.486,10-10S24.515,9,19,9S9,13.486,9,19S13.486,29,19,29z    M26.931,18H20v-6.931C23.612,11.523,26.478,14.389,26.931,18z M18,11.069V19c0,0.552,0.448,1,1,1h7.931   c-0.495,3.94-3.859,7-7.931,7c-4.411,0-8-3.589-8-8C11,14.928,14.061,11.564,18,11.069z M9,33c0-0.552,0.448-1,1-1h8   c0.552,0,1,0.448,1,1s-0.448,1-1,1h-8C9.448,34,9,33.552,9,33z M30,38c0,0.552-0.448,1-1,1H10c-0.552,0-1-0.448-1-1s0.448-1,1-1h19   C29.553,37,30,37.448,30,38z M30,43c0,0.552-0.448,1-1,1H10c-0.552,0-1-0.448-1-1s0.448-1,1-1h19C29.553,42,30,42.448,30,43z    M55,43c0,0.552-0.448,1-1,1H35c-0.552,0-1-0.448-1-1V32c0-0.552,0.448-1,1-1s1,0.448,1,1v10h3v-3c0-0.552,0.448-1,1-1s1,0.448,1,1   v3h3l0-6c0-0.552,0.448-1,1-1s1,0.448,1,1l0,6h3l0-9c0-0.552,0.448-1,1-1s1,0.448,1,1l0,9h3C54.553,42,55,42.448,55,43z M34,28   c-0.552,0-1-0.448-1-1V10c0-0.552,0.448-1,1-1s1,0.448,1,1v16h19c0.552,0,1,0.448,1,1s-0.448,1-1,1H34z M37.4,23.8   c-0.442-0.331-0.531-0.958-0.2-1.4l3-4c0.241-0.322,0.652-0.468,1.042-0.37l3.4,0.85l5.598-6.531   c0.36-0.418,0.992-0.467,1.41-0.108c0.419,0.359,0.468,0.991,0.108,1.41l-6,7c-0.246,0.288-0.632,0.412-1.002,0.319l-3.355-0.839   L38.8,23.6c-0.196,0.262-0.497,0.4-0.801,0.4C37.791,24,37.58,23.935,37.4,23.8z"/></g><text x="0" y="79" fill="#000000" font-size="5px" font-weight="bold" font-family="'Helvetica Neue', Helvetica, Arial-Unicode, Arial, Sans-serif">Created by RAHMAT DWI CAHYO</text><text x="0" y="84" fill="#000000" font-size="5px" font-weight="bold" font-family="'Helvetica Neue', Helvetica, Arial-Unicode, Arial, Sans-serif">from the Noun Project</text></svg>